<svg fill="none" height="100%" width="100%" viewBox="0 0 800 800" xmlns:xlink="http://www.w3.org/1999/xlink" xmlns="http://www.w3.org/2000/svg"><g transform="matrix(1,0,0,1,400,400)" id="i0"><g id="i1"><path fill="#e7efff" d="M0,-232.727C128.532,-232.727,232.727,-128.532,232.727,0C232.727,128.532,128.532,232.727,0,232.727C-128.532,232.727,-232.727,128.532,-232.727,0C-232.727,-128.532,-128.532,-232.727,0,-232.727Z" /></g></g><g visibility="hidden" id="i2"><animate repeatCount="indefinite" begin="0s" calcMode="discrete" dur="2.5s" values="hidden; visible; visible" keyTimes="0; 0.2; 1" attributeName="visibility" /><g transform="translate(162.618,204.509)"><g transform="scale(0,0)"><animateTransform repeatCount="indefinite" type="scale" attributeName="transform" dur="2.5s" begin="0s" calcMode="spline" values="0 0; 0 0; 1 1; 0 0; 1 1; 0 0" keyTimes="0; 0.2; 0.4; 0.6; 0.8; 1" keySplines="0 0 1 1; 0.333 0 0.667 1; 0.333 0 0.667 1; 0.333 0 0.667 1; 0.333 0 0.667 1" fill="freeze" /><g transform="translate(0,0)"><g id="i1"><path fill="#00c99f" d="M0,-13.964C7.712,-13.964,13.964,-7.712,13.964,0C13.964,7.712,7.712,13.964,0,13.964C-7.712,13.964,-13.964,7.712,-13.964,0C-13.964,-7.712,-7.712,-13.964,0,-13.964Z" /></g></g></g></g></g><g id="i3"><g transform="translate(614.109,162.618)"><g transform="scale(0,0)"><animateTransform repeatCount="indefinite" type="scale" attributeName="transform" dur="2.5s" begin="0s" calcMode="spline" values="0 0; 1 1; 0 0; 1 1; 0 0; 0 0" keyTimes="0; 0.2; 0.4; 0.6; 0.8; 1" keySplines="0.333 0 0.667 1; 0.333 0 0.667 1; 0.333 0 0.667 1; 0.333 0 0.667 1; 0 0 1 1" fill="freeze" /><g transform="translate(0,0)"><g id="i1"><path fill="#ffa100" d="M0,-13.964C7.712,-13.964,13.964,-7.712,13.964,0C13.964,7.712,7.712,13.964,0,13.964C-7.712,13.964,-13.964,7.712,-13.964,0C-13.964,-7.712,-7.712,-13.964,0,-13.964Z" /></g></g></g></g></g><g visibility="hidden" id="i4"><animate repeatCount="indefinite" begin="0s" calcMode="discrete" dur="2.5s" values="hidden; visible; visible" keyTimes="0; 0.2; 1" attributeName="visibility" /><g transform="translate(637.382,609.455)"><g transform="scale(0,0)"><animateTransform repeatCount="indefinite" type="scale" attributeName="transform" dur="2.5s" begin="0s" calcMode="spline" values="0 0; 0 0; 1 1; 0 0; 1 1; 0 0" keyTimes="0; 0.2; 0.4; 0.6; 0.8; 1" keySplines="0 0 1 1; 0.333 0 0.667 1; 0.333 0 0.667 1; 0.333 0 0.667 1; 0.333 0 0.667 1" fill="freeze" /><g transform="translate(0,0)"><g id="i1"><path fill="#00c99f" d="M0,-13.964C7.712,-13.964,13.964,-7.712,13.964,0C13.964,7.712,7.712,13.964,0,13.964C-7.712,13.964,-13.964,7.712,-13.964,0C-13.964,-7.712,-7.712,-13.964,0,-13.964Z" /></g></g></g></g></g><g id="i5"><g transform="translate(190.545,637.382)"><g transform="scale(0,0)"><animateTransform repeatCount="indefinite" type="scale" attributeName="transform" dur="2.5s" begin="0s" calcMode="spline" values="0 0; 1 1; 0 0; 1 1; 0 0; 0 0" keyTimes="0; 0.2; 0.4; 0.6; 0.8; 1" keySplines="0.333 0 0.667 1; 0.333 0 0.667 1; 0.333 0 0.667 1; 0.333 0 0.667 1; 0 0 1 1" fill="freeze" /><g transform="translate(0,0)"><g id="i1"><path fill="#ff4d69" d="M0,-13.964C7.712,-13.964,13.964,-7.712,13.964,0C13.964,7.712,7.712,13.964,0,13.964C-7.712,13.964,-13.964,7.712,-13.964,0C-13.964,-7.712,-7.712,-13.964,0,-13.964Z" /></g></g></g></g></g><g id="i6"><g transform="translate(399.987,404.649)"><g transform="scale(1,1)"><animateTransform repeatCount="indefinite" type="scale" attributeName="transform" dur="2.5s" begin="0s" calcMode="spline" values="1 1; 0.77 0.77; 1 1" keyTimes="0; 0.5; 1" keySplines="0.333 0 0.667 1; 0.333 0 0.667 1" fill="freeze" /><g transform="translate(-399.987,-404.649)"><g transform="matrix(1.088,0,0,1.088,400.001,399.59)" id="i7"><g id="i1"><path fill="#4e6aff" d="M0,-158.255C87.402,-158.255,158.255,-87.402,158.255,0C158.255,87.402,87.402,158.255,0,158.255C-87.402,158.255,-158.255,87.402,-158.255,0C-158.255,-87.402,-87.402,-158.255,0,-158.255Z" /></g></g></g></g></g></g><g id="i6"><g transform="translate(399.987,404.649)"><g transform="scale(1,1)"><animateTransform repeatCount="indefinite" type="scale" attributeName="transform" dur="2.5s" begin="0s" calcMode="spline" values="1 1; 0.77 0.77; 1 1" keyTimes="0; 0.5; 1" keySplines="0.333 0 0.667 1; 0.333 0 0.667 1" fill="freeze" /><g transform="translate(-399.987,-404.649)"><g id="i8" transform="matrix(1,0,0,1,320.87,344.145)"><path fill="#ffffff" d="M18.621,41.891C18.621,41.891,-18.615,41.891,-18.615,41.891C-23.756,41.891,-27.924,37.723,-27.924,32.582C-27.897,17.568,-18.656,4.111,-4.652,-1.303C-4.652,-1.303,2.703,-4.049,2.703,-4.049C7.845,-5.932,10.486,-11.626,8.603,-16.768C7.185,-20.639,3.52,-23.23,-0.602,-23.273C-5.409,-23.285,-9.315,-19.397,-9.327,-14.59C-9.328,-14.381,-9.321,-14.172,-9.306,-13.964C-9.306,-8.823,-13.474,-4.655,-18.615,-4.655C-23.756,-4.655,-27.924,-8.823,-27.924,-13.964C-28.233,-29.076,-16.232,-41.576,-1.12,-41.885C-0.947,-41.889,-0.775,-41.891,-0.602,-41.891C15.181,-41.764,27.873,-28.866,27.746,-13.083C27.651,-1.297,20.331,9.221,9.312,13.405C2.284,16.058,-2.883,17.176,-6.7,23.273C-6.7,23.273,18.621,23.273,18.621,23.273C23.762,23.273,27.93,27.441,27.93,32.582C27.93,37.723,23.762,41.891,18.621,41.891C18.621,41.891,18.621,41.891,18.621,41.891Z" /></g><g id="i9" transform="matrix(1,0,0,1,390.687,332.504)"><path fill="#ffffff" d="M18.622,30.26C18.622,30.26,-18.614,30.26,-18.614,30.26C-23.755,30.265,-27.927,26.1,-27.932,20.959C-27.933,19.96,-27.773,18.966,-27.458,18.018C-27.458,18.018,-13.494,-23.873,-13.494,-23.873C-11.875,-28.757,-6.602,-31.403,-1.718,-29.784C3.166,-28.165,5.812,-22.892,4.193,-18.008C4.193,-18.008,-5.721,11.642,-5.721,11.642C-5.721,11.642,18.622,11.642,18.622,11.642C23.763,11.642,27.932,15.81,27.932,20.951C27.932,26.092,23.763,30.26,18.622,30.26C18.622,30.26,18.622,30.26,18.622,30.26Z" /></g><g id="i10" transform="matrix(1,0,0,1,409.309,355.782)"><path fill="#ffffff" d="M0,30.255C-5.141,30.255,-9.309,26.086,-9.309,20.945C-9.309,20.945,-9.309,-20.945,-9.309,-20.945C-9.309,-26.086,-5.141,-30.255,0,-30.255C5.141,-30.255,9.309,-26.086,9.309,-20.945C9.309,-20.945,9.309,20.945,9.309,20.945C9.309,26.086,5.141,30.255,0,30.255Z" /></g><g id="i11" transform="matrix(1,0,0,1,427.926,406.979)"><path fill="#ffffff" d="M-55.853,67.494C-60.994,67.499,-65.167,63.335,-65.172,58.194C-65.174,55.777,-64.236,53.453,-62.556,51.715C-62.556,51.715,49.153,-64.648,49.153,-64.648C52.726,-68.35,58.624,-68.454,62.326,-64.881C66.028,-61.308,66.131,-55.411,62.558,-51.709C62.558,-51.709,-49.151,64.655,-49.151,64.655C-50.907,66.472,-53.326,67.496,-55.853,67.494C-55.853,67.494,-55.853,67.494,-55.853,67.494Z" /></g><g id="i1" transform="matrix(1,0,0,1,479.117,465.164)"><path fill="#ffffff" d="M-4.644,41.891C-9.785,41.88,-13.944,37.702,-13.933,32.561C-13.931,31.505,-13.749,30.458,-13.395,29.463C-13.395,29.463,5.223,-23.273,5.223,-23.273C5.223,-23.273,-18.608,-23.273,-18.608,-23.273C-23.749,-23.273,-27.917,-27.441,-27.917,-32.582C-27.917,-37.723,-23.749,-41.891,-18.608,-41.891C-18.608,-41.891,18.629,-41.891,18.629,-41.891C23.77,-41.88,27.928,-37.702,27.917,-32.561C27.915,-31.505,27.733,-30.458,27.379,-29.463C27.379,-29.463,4.106,35.7,4.106,35.7C2.789,39.404,-0.713,41.882,-4.644,41.891Z" /></g></g></g></g></g><g id="i6"><g transform="translate(399.987,404.649)"><g transform="scale(1,1)"><animateTransform repeatCount="indefinite" type="scale" attributeName="transform" dur="2.5s" begin="0s" calcMode="spline" values="1 1; 0.77 0.77; 1 1" keyTimes="0; 0.5; 1" keySplines="0.333 0 0.667 1; 0.333 0 0.667 1" fill="freeze" /><g transform="translate(-399.987,-404.649)"><g id="i12"><g transform="translate(400.001,399.59)"><g transform="rotate(0)"><animateTransform repeatCount="indefinite" type="rotate" attributeName="transform" dur="2.5s" begin="0s" calcMode="spline" values="0; 360" keyTimes="0; 1" keySplines="0 0 1 1" fill="freeze" /><g transform="scale(1.088,1.088) translate(0,0)"><g id="i13" transform="matrix(0.431,0,0,0.431,0,0)"><path stroke-dashoffset="-25" stroke-dasharray="88 12" pathLength="100" d="M0,-400C220.914,-400,400,-220.914,400,0C400,220.914,220.914,400,0,400C-220.914,400,-400,220.914,-400,0C-400,-220.914,-220.914,-400,0,-400Z" stroke-linecap="round" stroke-width="64" stroke="#00c99f" /></g></g></g></g></g></g></g></g></g><g id="i6"><g transform="translate(399.987,404.649)"><g transform="scale(1,1)"><animateTransform repeatCount="indefinite" type="scale" attributeName="transform" dur="2.5s" begin="0s" calcMode="spline" values="1 1; 0.77 0.77; 1 1" keyTimes="0; 0.5; 1" keySplines="0.333 0 0.667 1; 0.333 0 0.667 1" fill="freeze" /><g transform="translate(-399.987,-404.649)"><g id="i12"><g transform="translate(400.001,399.59)"><g transform="rotate(0)"><animateTransform repeatCount="indefinite" type="rotate" attributeName="transform" dur="2.5s" begin="0s" calcMode="spline" values="0; 360" keyTimes="0; 1" keySplines="0 0 1 1" fill="freeze" /><g transform="scale(1.088,1.088) translate(0,0)"><g transform="matrix(1,0,0,1,111.701,-130.275)" id="i14"><g id="i1"><path stroke-linejoin="round" stroke-width="28" stroke="#00c99f" fill="#00c99f" d="M18.729,-28.047C21.866,-9.349,25.004,9.349,28.141,28.047C9.38,24.973,-9.38,21.898,-28.141,18.824C-12.517,3.2,3.105,-12.423,18.729,-28.047Z" /></g></g></g></g></g></g></g></g></g></g></svg>